<?xml version="1.0" standalone="no"?><!DOCTYPE svg PUBLIC "-//W3C//DTD SVG 1.1//EN" "http://www.w3.org/Graphics/SVG/1.1/DTD/svg11.dtd"><svg t="1723896869866" class="icon" viewBox="0 0 1024 1024" version="1.1" xmlns="http://www.w3.org/2000/svg" p-id="20341" xmlns:xlink="http://www.w3.org/1999/xlink" width="200" height="200"><path d="M896 426.666667a42.666667 42.666667 0 0 1-42.666667-42.666667V170.666667h-213.333333a42.666667 42.666667 0 0 1 0-85.333334h256a42.666667 42.666667 0 0 1 42.666667 42.666667v256a42.666667 42.666667 0 0 1-42.666667 42.666667zM384 938.666667H128a42.666667 42.666667 0 0 1-42.666667-42.666667v-256a42.666667 42.666667 0 0 1 85.333334 0v213.333333h213.333333a42.666667 42.666667 0 0 1 0 85.333334z" p-id="20342"></path><path d="M597.333333 469.333333a42.666667 42.666667 0 0 1-30.293333-12.373333 42.666667 42.666667 0 0 1 0-60.586667l298.666667-298.666666a42.666667 42.666667 0 1 1 60.586666 60.586666l-298.666666 298.666667A42.666667 42.666667 0 0 1 597.333333 469.333333zM128 938.666667a42.666667 42.666667 0 0 1-30.293333-12.373334 42.666667 42.666667 0 0 1 0-60.586666l298.666666-298.666667a42.666667 42.666667 0 0 1 60.586667 60.586667l-298.666667 298.666666A42.666667 42.666667 0 0 1 128 938.666667z" p-id="20343"></path></svg>