<?xml version="1.0" standalone="no"?><!DOCTYPE svg PUBLIC "-//W3C//DTD SVG 1.1//EN" "http://www.w3.org/Graphics/SVG/1.1/DTD/svg11.dtd"><svg t="1723905010525" class="icon" viewBox="0 0 1024 1024" version="1.1" xmlns="http://www.w3.org/2000/svg" p-id="2440" xmlns:xlink="http://www.w3.org/1999/xlink" width="200" height="200"><path d="M810.666667 469.333333H597.333333c-23.466667 0-42.666667-19.2-42.666666-42.666666V213.333333c0-23.466667 19.2-42.666667 42.666666-42.666666s42.666667 19.2 42.666667 42.666666v170.666667h170.666667c23.466667 0 42.666667 19.2 42.666666 42.666667s-19.2 42.666667-42.666666 42.666666zM426.666667 853.333333c-23.466667 0-42.666667-19.2-42.666667-42.666666v-170.666667h-170.666667c-23.466667 0-42.666667-19.2-42.666666-42.666667s19.2-42.666667 42.666666-42.666666h213.333334c23.466667 0 42.666667 19.2 42.666666 42.666666v213.333334c0 23.466667-19.2 42.666667-42.666666 42.666666z" p-id="2441"></path><path d="M597.333333 469.333333c-10.666667 0-21.333333-4.266667-29.866666-12.8-17.066667-17.066667-17.066667-42.666667 0-59.733333l256-256c17.066667-17.066667 42.666667-17.066667 59.733333 0 17.066667 17.066667 17.066667 42.666667 0 59.733333l-256 256c-8.533333 8.533333-19.2 12.8-29.866667 12.8zM170.666667 896c-10.666667 0-21.333333-4.266667-29.866667-12.8-17.066667-17.066667-17.066667-42.666667 0-59.733333l256-256c17.066667-17.066667 42.666667-17.066667 59.733333 0 17.066667 17.066667 17.066667 42.666667 0 59.733333l-256 256c-8.533333 8.533333-19.2 12.8-29.866666 12.8z" p-id="2442"></path></svg>