<?xml version="1.0" standalone="no"?><!DOCTYPE svg PUBLIC "-//W3C//DTD SVG 1.1//EN"
        "http://www.w3.org/Graphics/SVG/1.1/DTD/svg11.dtd">
<svg class="icon" width="200px" height="200.00px" viewBox="0 0 1024 1024" version="1.1"
     xmlns="http://www.w3.org/2000/svg">
    <path fill="currentColor"
          d="M864.109714 811.117714c13.202286 13.184 34.066286 13.184 46.409143 0a32.530286 32.530286 0 0 0 0-46.409143L158.171429 12.781714a33.408 33.408 0 0 0-46.848 0c-12.342857 12.342857-12.342857 34.048 0 46.409143zM657.609143 442.806857l24.685714-178.395428c1.28-9.801143 2.56-14.482286 11.52-20.864l103.021714-74.514286c23.405714-17.024 33.206857-37.888 33.206858-57.051429 0-28.525714-22.564571-53.650286-55.771429-53.650285H273.133714l68.114286 68.553142h385.334857c3.84 0 6.4 2.56 6.4 6.4 0 2.962286-0.438857 5.101714-3.419428 7.222858l-90.697143 60.470857c-12.763429 8.082286-19.565714 20.425143-21.705143 37.028571l-18.742857 146.048zM240.768 685.933714h227.364571V904.777143c0 64.731429 27.245714 119.222857 37.485715 119.222857 10.624 0 37.888-54.491429 37.888-119.222857V685.933714h119.643428l-68.571428-68.553143H295.716571c-3.401143 0-5.961143-2.56-5.961142-6.4 0-2.541714 1.28-5.101714 3.401142-7.222857l109.421715-114.102857c7.241143-7.68 13.202286-14.902857 12.781714-24.283428-0.859429-10.203429-2.980571-21.284571-5.12-32.365715l-67.273143-67.693714 7.241143 54.491429c2.56 17.481143-3.401143 24.283429-11.922286 33.645714l-130.285714 141.348571c-12.342857 13.220571-17.883429 25.984-17.883429 43.885715 0 28.525714 20.864 47.250286 50.669715 47.250285z"/>
</svg>