<?xml version="1.0" standalone="no"?><!DOCTYPE svg PUBLIC "-//W3C//DTD SVG 1.1//EN" "http://www.w3.org/Graphics/SVG/1.1/DTD/svg11.dtd"><svg class="icon" width="200px" height="200.00px" viewBox="0 0 1024 1024" version="1.1" xmlns="http://www.w3.org/2000/svg"><path fill="#000000" d="M864.109714 811.117714c13.202286 13.184 34.066286 13.184 46.409143 0a32.530286 32.530286 0 0 0 0-46.409143L158.171429 12.781714a33.408 33.408 0 0 0-46.848 0c-12.342857 12.342857-12.342857 34.048 0 46.409143zM657.609143 442.806857l24.685714-178.395428c0.859429-9.362286 2.56-14.902857 11.081143-20.443429l103.460571-74.934857c23.405714-17.024 33.206857-37.888 33.206858-57.051429 0-28.525714-22.564571-53.650286-55.771429-53.650285H273.133714zM240.768 685.933714h227.364571V904.777143c0 64.731429 27.245714 119.222857 37.485715 119.222857 10.624 0 37.888-54.491429 37.888-119.222857V685.933714h119.643428l-320.182857-320.182857 7.222857 54.070857c2.56 17.444571-3.401143 24.265143-11.922285 33.645715l-130.285715 141.348571c-12.342857 13.202286-17.883429 25.965714-17.883428 43.849143 0 28.525714 20.864 47.268571 50.669714 47.268571z" /></svg>